<svg width="439" height="757" viewBox="0 0 439 757" fill="none" xmlns="http://www.w3.org/2000/svg">
<path d="M27.147 260.791C15.9557 260.791 6.87863 251.607 6.87863 240.281C6.87863 228.956 15.9557 219.772 27.147 219.772C38.3433 219.772 47.4204 228.956 47.4204 240.281C47.4204 251.607 38.3433 260.791 27.147 260.791ZM51.1151 240.281C51.1151 240.008 51.1023 239.736 51.0947 239.465L53.8625 239.171L53.5076 235.748L50.7424 236.042C50.6479 235.502 50.5381 234.97 50.413 234.443L53.0506 233.575L52.0011 230.302L49.361 231.17C49.1541 230.664 48.9397 230.165 48.7048 229.677L51.1074 228.274L49.4044 225.293L47.0042 226.698C46.7004 226.246 46.3787 225.81 46.0494 225.381L48.115 223.497L45.8399 220.94L43.7717 222.823C43.3836 222.446 42.9853 222.079 42.5717 221.728L44.2083 219.454L41.4559 217.429L39.8217 219.705C39.3647 219.416 38.9025 219.142 38.425 218.884L39.5562 216.321L36.4488 214.921L35.3176 217.481C34.8146 217.297 34.3015 217.135 33.7831 216.982L34.3601 214.234L31.0332 213.518L30.4536 216.269C29.925 216.194 29.3888 216.14 28.85 216.101V213.285H25.4464V216.101C24.9077 216.14 24.3715 216.194 23.843 216.269L23.2658 213.518L19.9364 214.234L20.516 216.982C19.9977 217.135 19.4793 217.297 18.9763 217.481L17.8502 214.921L14.7428 216.321L15.8714 218.884C15.3965 219.142 14.9293 219.416 14.4748 219.705L12.8432 217.429L10.0907 219.454L11.7222 221.728C11.3112 222.079 10.9129 222.446 10.5274 222.823L8.45913 220.94L6.18158 223.497L8.2498 225.381C7.91787 225.81 7.59609 226.246 7.2948 226.698L4.88958 225.293L3.18902 228.274L5.59174 229.677C5.35684 230.165 5.14234 230.664 4.93807 231.17L2.29797 230.302L1.24846 233.575L3.88607 234.443C3.7584 234.97 3.64866 235.502 3.55419 236.042L0.791526 235.748L0.43396 239.171L3.20186 239.465C3.1942 239.736 3.1839 240.008 3.1839 240.281C3.1839 240.555 3.1942 240.826 3.20186 241.098L0.43396 241.392L0.791526 244.815L3.55419 244.521C3.64866 245.061 3.7584 245.593 3.88607 246.12L1.24846 246.988L2.29797 250.261L4.93807 249.393C5.14234 249.899 5.35678 250.398 5.59424 250.886L3.18902 252.289L4.88958 255.27L7.2948 253.865C7.59609 254.317 7.91787 254.753 8.2498 255.182L6.18158 257.065L8.45913 259.623L10.5274 257.74C10.9129 258.117 11.3112 258.484 11.7222 258.835L10.0907 261.111L12.8432 263.134L14.4748 260.858C14.9293 261.147 15.3965 261.421 15.8714 261.677L14.7428 264.242L17.8502 265.642L18.9763 263.082C19.4819 263.268 19.9977 263.431 20.516 263.581L19.9364 266.329L23.2658 267.045L23.843 264.294C24.3715 264.368 24.9077 264.423 25.4464 264.462V267.277H28.85V264.462C29.3888 264.423 29.925 264.368 30.4536 264.294L31.0332 267.045L34.3601 266.329L33.7831 263.581C34.3015 263.431 34.8146 263.268 35.3176 263.082L36.4488 265.642L39.5562 264.242L38.425 261.679C38.9025 261.421 39.3647 261.147 39.8217 260.858L41.4559 263.134L44.2083 261.111L42.5717 258.835C42.9853 258.484 43.3836 258.117 43.7717 257.74L45.8399 259.623L48.115 257.065L46.0494 255.182C46.3787 254.753 46.7004 254.317 47.0042 253.865L49.4044 255.27L51.1074 252.289L48.7048 250.886C48.9397 250.398 49.1541 249.899 49.361 249.393L52.0011 250.261L53.0506 246.988L50.413 246.12C50.5381 245.593 50.6479 245.061 50.7424 244.521L53.5076 244.815L53.8625 241.392L51.0947 241.098C51.1023 240.826 51.1151 240.555 51.1151 240.281" fill="#47A2DF"/>
<path d="M263.713 712.943C257.215 712.943 251.945 707.611 251.945 701.037C251.945 694.462 257.215 689.13 263.713 689.13C270.214 689.13 275.482 694.462 275.482 701.037C275.482 707.611 270.214 712.943 263.713 712.943ZM277.627 701.037L277.614 700.564L279.222 700.393L279.016 698.404L277.409 698.575C277.353 698.262 277.292 697.952 277.218 697.647L278.75 697.143L278.14 695.242L276.608 695.749C276.49 695.451 276.365 695.162 276.227 694.88L277.621 694.064L276.633 692.333L275.239 693.15C275.063 692.889 274.877 692.636 274.685 692.385L275.885 691.292L274.565 689.807L273.362 690.902C273.138 690.683 272.905 690.471 272.67 690.267L273.618 688.944L272.019 687.771L271.072 689.091C270.806 688.923 270.538 688.766 270.26 688.616L270.916 687.125L269.111 686.312L268.457 687.8C268.164 687.694 267.868 687.598 267.564 687.51L267.898 685.914L265.968 685.5L265.633 687.097C265.327 687.053 265.013 687.022 264.699 686.999V685.363H262.725V686.999C262.414 687.022 262.102 687.053 261.796 687.097L261.459 685.5L259.526 685.914L259.863 687.51C259.562 687.598 259.263 687.694 258.969 687.8L258.313 686.312L256.51 687.125L257.167 688.616C256.891 688.766 256.62 688.923 256.357 689.091L255.407 687.771L253.812 688.944L254.759 690.267C254.519 690.471 254.286 690.683 254.062 690.902L252.864 689.807L251.542 691.292L252.742 692.385C252.55 692.636 252.361 692.889 252.188 693.15L250.791 692.333L249.803 694.064L251.2 694.88C251.064 695.162 250.939 695.451 250.819 695.749L249.287 695.242L248.677 697.143L250.209 697.647C250.135 697.952 250.071 698.262 250.015 698.575L248.414 698.404L248.204 700.393L249.81 700.564L249.8 701.037L249.81 701.509L248.204 701.682L248.414 703.669L250.015 703.499C250.071 703.811 250.135 704.121 250.209 704.426L248.677 704.927L249.287 706.831L250.819 706.325C250.939 706.619 251.064 706.909 251.2 707.193L249.803 708.006L250.791 709.737L252.188 708.921C252.361 709.184 252.55 709.438 252.742 709.686L251.542 710.781L252.864 712.264L254.062 711.171C254.286 711.391 254.519 711.602 254.759 711.807L253.812 713.127L255.407 714.302L256.357 712.982C256.62 713.15 256.891 713.31 257.167 713.457L256.51 714.945L258.313 715.759L258.969 714.274C259.263 714.382 259.562 714.475 259.863 714.563L259.526 716.157L261.459 716.573L261.796 714.976C262.102 715.02 262.414 715.051 262.725 715.074V716.707H264.699V715.074C265.013 715.051 265.327 715.02 265.633 714.976L265.968 716.573L267.898 716.157L267.564 714.563C267.868 714.475 268.164 714.382 268.457 714.274L269.111 715.759L270.916 714.945L270.26 713.457C270.538 713.31 270.806 713.15 271.072 712.982L272.019 714.302L273.618 713.127L272.67 711.807C272.905 711.602 273.138 711.391 273.362 711.171L274.565 712.264L275.885 710.781L274.685 709.686C274.877 709.438 275.063 709.184 275.239 708.921L276.633 709.737L277.621 708.006L276.227 707.193C276.365 706.909 276.49 706.619 276.608 706.325L278.14 706.831L278.75 704.927L277.218 704.426C277.292 704.121 277.353 703.811 277.409 703.499L279.016 703.669L279.222 701.682L277.614 701.509L277.627 701.037Z" fill="#47A2DF"/>
<path d="M231.751 99.1199C225.934 99.1199 221.216 94.3484 221.216 88.461C221.216 82.571 225.934 77.7995 231.751 77.7995C237.57 77.7995 242.288 82.571 242.288 88.461C242.288 94.3484 237.57 99.1199 231.751 99.1199ZM248.521 91.3776L247.285 90.9229C246.598 90.6698 246.175 89.9878 246.213 89.2489C246.228 88.988 246.236 88.7245 246.236 88.461C246.236 88.2078 246.228 87.9573 246.215 87.7067L248.707 87.0298C249.583 86.7947 250.099 85.8854 249.864 85.0045L249.147 82.2894C248.914 81.4084 248.015 80.8815 247.14 81.1192L245.868 81.4653C245.166 81.6539 244.433 81.3465 244.05 80.7213L243.882 80.4578C243.483 79.8404 243.517 79.037 243.984 78.4712L244.831 77.4482C245.414 76.7481 245.324 75.7044 244.63 75.118L242.503 73.3122C241.811 72.7232 240.777 72.8137 240.197 73.5163L239.352 74.5342C238.887 75.0948 238.116 75.2756 237.455 74.9888C236.962 74.7744 236.459 74.5884 235.941 74.4308C235.249 74.219 234.776 73.581 234.776 72.8525V71.5194C234.776 70.6049 234.044 69.8635 233.14 69.8635H230.364C229.46 69.8635 228.728 70.6049 228.728 71.5194V72.8473C228.728 73.5861 228.24 74.2216 227.543 74.436L227.244 74.529C226.552 74.759 225.796 74.5187 225.378 73.9142L224.624 72.8266C224.106 72.08 223.087 71.8966 222.347 72.421L220.072 74.033C219.331 74.5574 219.153 75.5908 219.671 76.3374L220.427 77.4301C220.846 78.0346 220.807 78.838 220.358 79.4193L220.169 79.6647C219.732 80.2537 218.974 80.4991 218.292 80.246L217.051 79.7913C216.204 79.4761 215.264 79.9205 214.955 80.7807L214.005 83.4183C213.696 84.2786 214.135 85.2292 214.986 85.5418L216.219 85.9965C216.908 86.2496 217.332 86.9316 217.289 87.6705C217.276 87.9314 217.268 88.1949 217.268 88.461C217.268 88.7116 217.273 88.9621 217.286 89.2127L214.797 89.8896C213.923 90.1247 213.405 91.034 213.637 91.9149L214.358 94.63C214.59 95.5135 215.489 96.0379 216.362 95.8003L217.633 95.4567C218.336 95.2655 219.068 95.5729 219.456 96.1981L219.62 96.4616C220.018 97.079 219.988 97.8824 219.518 98.4482L218.673 99.4686C218.093 100.171 218.182 101.215 218.874 101.804L221.001 103.607C221.693 104.196 222.725 104.106 223.307 103.403L224.155 102.383C224.617 101.825 225.385 101.644 226.049 101.931C226.539 102.145 227.045 102.331 227.563 102.489C228.253 102.7 228.728 103.338 228.728 104.07V105.4C228.728 106.315 229.46 107.056 230.364 107.056H233.14C234.044 107.056 234.776 106.315 234.776 105.4V104.072C234.776 103.333 235.262 102.698 235.961 102.483L236.257 102.39C236.949 102.16 237.708 102.401 238.124 103.005L238.877 104.09C239.395 104.839 240.417 105.023 241.157 104.498L243.43 102.889C244.17 102.362 244.352 101.329 243.833 100.579L243.077 99.4893C242.661 98.8848 242.694 98.0814 243.146 97.5027L243.333 97.2521C243.772 96.6657 244.528 96.4229 245.214 96.6735L246.45 97.1281C247.301 97.4433 248.24 96.9989 248.549 96.1387L249.496 93.5011C249.805 92.6409 249.371 91.6902 248.521 91.3776" fill="#47A2DF"/>
<path d="M27.147 748.922C21.3305 748.922 16.612 744.147 16.612 738.26C16.612 732.373 21.3305 727.601 27.147 727.601C32.9686 727.601 37.6846 732.373 37.6846 738.26C37.6846 744.147 32.9686 748.922 27.147 748.922ZM43.9173 741.179L42.6814 740.725C41.9946 740.469 41.5708 739.789 41.6091 739.048C41.6244 738.79 41.6321 738.524 41.6321 738.26C41.6321 738.007 41.6244 737.756 41.6116 737.508L44.1037 736.831C44.9795 736.594 45.4953 735.687 45.263 734.804L44.5428 732.091C44.3105 731.208 43.4117 730.683 42.5411 730.921L41.2669 731.264C40.5622 731.456 39.8294 731.148 39.4464 730.523L39.278 730.257C38.8796 729.639 38.9128 728.836 39.3801 728.273L40.2277 727.25C40.8099 726.55 40.7205 725.503 40.026 724.917L37.8991 723.111C37.2071 722.525 36.1731 722.615 35.5935 723.318L34.7483 724.336C34.2836 724.896 33.5124 725.075 32.8511 724.788C32.3583 724.576 31.8554 724.39 31.3371 724.23C30.6451 724.021 30.1727 723.38 30.1727 722.651V721.318C30.1727 720.407 29.4399 719.663 28.536 719.663H25.7605C24.8566 719.663 24.1239 720.407 24.1239 721.318V722.649C24.1239 723.385 23.6362 724.023 22.9391 724.235L22.6429 724.331C21.9509 724.558 21.1926 724.318 20.7739 723.716L20.0206 722.628C19.5048 721.879 18.4835 721.698 17.7431 722.223L15.4681 723.832C14.7277 724.356 14.5488 725.39 15.0672 726.139L15.8229 727.229C16.2417 727.836 16.2034 728.637 15.754 729.218L15.5651 729.464C15.1285 730.055 14.3701 730.298 13.6884 730.048L12.4475 729.59C11.5998 729.278 10.6602 729.72 10.3512 730.58L9.40134 733.22C9.09238 734.08 9.53152 735.031 10.3818 735.343L11.6151 735.798C12.3045 736.049 12.7284 736.733 12.6875 737.47C12.6722 737.733 12.6646 737.994 12.6646 738.26C12.6646 738.511 12.6696 738.764 12.6824 739.014L10.1929 739.689C9.31966 739.924 8.80126 740.833 9.03617 741.717L9.75367 744.429C9.98857 745.313 10.8848 745.837 11.7581 745.602L13.0296 745.256C13.7343 745.065 14.4646 745.375 14.8527 746L15.0162 746.261C15.4171 746.881 15.3864 747.684 14.9166 748.25L14.0689 749.268C13.4893 749.97 13.5785 751.014 14.2705 751.603L16.3974 753.409C17.0894 753.998 18.121 753.905 18.7032 753.205L19.5508 752.184C20.013 751.626 20.7816 751.443 21.448 751.732C21.9357 751.947 22.4438 752.133 22.9596 752.288C23.649 752.499 24.1239 753.138 24.1239 753.869V755.199C24.1239 756.116 24.8566 756.858 25.7605 756.858H28.536C29.4399 756.858 30.1727 756.116 30.1727 755.199V753.874C30.1727 753.135 30.6579 752.497 31.3575 752.282L31.6536 752.189C32.3456 751.96 33.1039 752.2 33.5201 752.807L34.2734 753.892C34.7917 754.644 35.813 754.824 36.5534 754.3L38.8285 752.688C39.569 752.164 39.7477 751.13 39.232 750.381L38.4736 749.288C38.0574 748.686 38.0931 747.88 38.5425 747.302L38.7315 747.054C39.1681 746.465 39.9239 746.222 40.6107 746.473L41.8465 746.93C42.6968 747.242 43.6364 746.798 43.9454 745.938L44.8927 743.3C45.2042 742.442 44.7676 741.492 43.9173 741.179" fill="#47A2DF"/>
<path d="M338.094 678.975C334.492 678.975 331.573 676.022 331.573 672.377C331.573 668.734 334.492 665.779 338.094 665.779C341.694 665.779 344.613 668.734 344.613 672.377C344.613 676.022 341.694 678.975 338.094 678.975ZM348.468 674.183L347.705 673.904C347.279 673.744 347.018 673.322 347.041 672.865L347.057 672.377L347.044 671.912L348.586 671.493C349.127 671.346 349.446 670.786 349.301 670.238L348.857 668.559C348.714 668.011 348.157 667.688 347.616 667.835L346.829 668.047C346.395 668.166 345.941 667.975 345.703 667.587L345.599 667.425C345.353 667.042 345.374 666.546 345.662 666.195L346.186 665.565C346.546 665.131 346.492 664.482 346.063 664.121L344.746 663.002C344.317 662.638 343.678 662.697 343.318 663.131L342.795 663.761C342.509 664.108 342.034 664.219 341.62 664.04C341.317 663.906 341.005 663.795 340.686 663.694C340.257 663.565 339.966 663.167 339.966 662.72V661.894C339.966 661.328 339.511 660.871 338.952 660.871H337.234C336.675 660.871 336.22 661.328 336.22 661.894V662.718C336.22 663.172 335.921 663.568 335.487 663.697L335.306 663.756C334.877 663.898 334.407 663.751 334.149 663.377L333.682 662.705C333.363 662.24 332.73 662.126 332.273 662.452L330.866 663.449C330.409 663.774 330.296 664.412 330.618 664.875L331.083 665.552C331.343 665.926 331.32 666.422 331.042 666.781L330.925 666.934C330.654 667.301 330.187 667.451 329.763 667.296L328.997 667.014C328.471 666.818 327.889 667.094 327.697 667.624L327.112 669.259C326.921 669.791 327.189 670.377 327.715 670.571L328.481 670.853C328.905 671.008 329.168 671.431 329.145 671.889L329.13 672.377L329.142 672.842L327.6 673.263C327.059 673.408 326.737 673.971 326.885 674.516L327.329 676.195C327.472 676.74 328.029 677.066 328.568 676.921L329.357 676.707C329.793 676.59 330.243 676.779 330.483 677.166L330.585 677.329C330.833 677.712 330.812 678.21 330.524 678.559L330 679.189C329.64 679.623 329.696 680.269 330.123 680.633L331.44 681.752C331.867 682.114 332.508 682.059 332.868 681.625L333.391 680.995C333.677 680.649 334.155 680.535 334.566 680.713C334.869 680.845 335.181 680.961 335.5 681.06C335.929 681.189 336.22 681.584 336.22 682.036V682.86C336.22 683.426 336.675 683.886 337.234 683.886H338.952C339.511 683.886 339.966 683.426 339.966 682.86V682.039C339.966 681.581 340.265 681.189 340.699 681.054L340.88 680.998C341.309 680.855 341.779 681.005 342.037 681.377L342.501 682.052C342.823 682.517 343.454 682.628 343.913 682.305L345.323 681.305C345.777 680.982 345.89 680.341 345.568 679.879L345.103 679.202C344.843 678.83 344.866 678.332 345.144 677.972L345.261 677.817C345.532 677.456 345.999 677.303 346.423 677.461L347.189 677.743C347.715 677.936 348.297 677.662 348.489 677.13L349.074 675.498C349.268 674.965 348.994 674.376 348.468 674.183" fill="#47A2DF"/>
<path d="M427.663 18.7907C424.063 18.7907 421.142 15.8379 421.142 12.1928C421.142 8.55027 424.063 5.59756 427.663 5.59756C431.266 5.59756 434.182 8.55027 434.182 12.1928C434.182 15.8379 431.266 18.7907 427.663 18.7907ZM438.04 14.0011L437.274 13.7171C436.85 13.5621 436.587 13.141 436.615 12.6837L436.625 12.1928L436.615 11.7278L438.157 11.3093C438.696 11.1646 439.018 10.6015 438.872 10.0538L438.425 8.37465C438.282 7.82957 437.728 7.5067 437.187 7.65137L436.401 7.86568C435.966 7.98193 435.512 7.7934 435.272 7.4059L435.17 7.24318C434.922 6.86084 434.943 6.36225 435.234 6.01092L435.76 5.3806C436.117 4.9466 436.061 4.30067 435.632 3.93642L434.317 2.82046C433.888 2.45621 433.25 2.51304 432.89 2.94446L432.364 3.57743C432.078 3.9236 431.603 4.03464 431.192 3.85897C430.888 3.72464 430.574 3.61101 430.255 3.51285C429.828 3.38368 429.535 2.98583 429.535 2.53375V1.7122C429.535 1.14386 429.08 0.686555 428.524 0.686555H426.805C426.246 0.686555 425.791 1.14386 425.791 1.7122V2.53375C425.791 2.991 425.49 3.38362 425.059 3.51537L424.875 3.57478C424.446 3.71428 423.976 3.56703 423.721 3.19245L423.253 2.52075C422.932 2.05575 422.301 1.94467 421.841 2.26759L420.437 3.26738C419.977 3.5903 419.865 4.23097 420.187 4.69339L420.657 5.36761C420.912 5.74219 420.889 6.23826 420.611 6.59734L420.496 6.75237C420.225 7.11662 419.755 7.26636 419.334 7.11136L418.566 6.82982C418.04 6.63607 417.46 6.90993 417.268 7.4421L416.681 9.07473C416.49 9.6069 416.76 10.1959 417.286 10.3871L418.05 10.6686C418.476 10.8262 418.739 11.2474 418.714 11.7046L418.701 12.1928L418.711 12.6604L417.169 13.0789C416.63 13.2236 416.308 13.7867 416.454 14.3344L416.898 16.0136C417.041 16.5586 417.598 16.8816 418.139 16.737L418.928 16.5225C419.362 16.4063 419.814 16.5975 420.054 16.985L420.156 17.1477C420.404 17.5274 420.384 18.026 420.092 18.3748L419.569 19.0077C419.209 19.4417 419.265 20.0875 419.694 20.4518L421.009 21.5678C421.438 21.932 422.076 21.8752 422.436 21.4412L422.96 20.8109C423.248 20.4647 423.723 20.3536 424.134 20.5292C424.438 20.6636 424.75 20.7773 425.071 20.8755C425.498 21.0072 425.791 21.4025 425.791 21.8546V22.6787C425.791 23.2444 426.246 23.7017 426.805 23.7017H428.524C429.08 23.7017 429.535 23.2444 429.535 22.6787V21.8546C429.535 21.3999 429.836 21.0046 430.267 20.8728L430.451 20.8161C430.88 20.674 431.35 20.8212 431.608 21.1958L432.073 21.8675C432.394 22.3299 433.025 22.4436 433.485 22.1181L434.892 21.1235C435.349 20.798 435.458 20.1598 435.139 19.6948L434.672 19.0206C434.411 18.646 434.437 18.15 434.713 17.7883L434.83 17.636C435.103 17.2717 435.568 17.1219 435.992 17.2769L436.761 17.5584C437.284 17.7521 437.866 17.4784 438.058 16.9462L438.645 15.3135C438.836 14.7813 438.566 14.1923 438.04 14.0011" fill="#47A2DF"/>
</svg>
