<svg width="38" height="38" viewBox="0 0 38 38" fill="none" xmlns="http://www.w3.org/2000/svg">
<path d="M19.1471 29.9214C13.3306 29.9214 8.61213 25.1474 8.61213 19.2599C8.61213 13.3725 13.3306 8.60104 19.1471 8.60104C24.9687 8.60104 29.6847 13.3725 29.6847 19.2599C29.6847 25.1474 24.9687 29.9214 19.1471 29.9214ZM35.9175 22.1791L34.6816 21.7244C33.9947 21.4687 33.5709 20.7893 33.6092 20.0479C33.6246 19.7895 33.6322 19.5234 33.6322 19.2599C33.6322 19.0068 33.6245 18.7562 33.6117 18.5082L36.1039 17.8313C36.9796 17.5937 37.4954 16.6869 37.2631 15.8034L36.543 13.0909C36.3106 12.2074 35.4119 11.683 34.5412 11.9206L33.267 12.2642C32.5623 12.4554 31.8295 12.148 31.4465 11.5228L31.2781 11.2567C30.8798 10.6393 30.9129 9.83587 31.3802 9.27271L32.2278 8.24971C32.81 7.54962 32.7206 6.50336 32.0261 5.91694L29.8992 4.11119C29.2072 3.52477 28.1732 3.6152 27.5936 4.31787L26.7484 5.33569C26.2837 5.89627 25.5125 6.07453 24.8512 5.78777C24.3584 5.57594 23.8555 5.38996 23.3372 5.22979C22.6452 5.02055 22.1729 4.37985 22.1729 3.65134V2.31836C22.1729 1.40644 21.44 0.662426 20.5361 0.662426H17.7606C16.8567 0.662426 16.124 1.40644 16.124 2.31836V3.64876C16.124 4.38501 15.6363 5.0231 14.9392 5.23494L14.643 5.33052C13.9511 5.55785 13.1928 5.3176 12.774 4.71568L12.0207 3.6281C11.505 2.87893 10.4836 2.69811 9.74318 3.22253L7.46824 4.83195C6.72778 5.35637 6.54896 6.38969 7.06729 7.13886L7.82307 8.22906C8.24181 8.83614 8.20351 9.63696 7.75412 10.2182L7.56524 10.4636C7.12862 11.0552 6.37026 11.298 5.68852 11.0475L4.44763 10.5902C3.59992 10.2777 2.66031 10.7194 2.35135 11.5796L1.40146 14.2198C1.09251 15.0801 1.53164 16.0307 2.3819 16.3433L3.61518 16.798C4.30458 17.0486 4.72848 17.7332 4.68763 18.4694C4.67231 18.7329 4.66469 18.9938 4.66469 19.2599C4.66469 19.5105 4.66975 19.7637 4.68252 20.0143L2.19302 20.6885C1.31978 20.9236 0.801381 21.8329 1.03629 22.7164L1.75379 25.429C1.9887 26.3125 2.88494 26.8369 3.75818 26.6018L5.02974 26.2556C5.73446 26.0644 6.46474 26.3744 6.85285 26.9996L7.0163 27.2605C7.41717 27.8805 7.3865 28.684 6.91668 29.2497L6.06902 30.2676C5.48942 30.9702 5.57867 32.0139 6.27062 32.6029L8.39757 34.4087C9.08952 34.9977 10.1211 34.9047 10.7033 34.2046L11.551 33.1842C12.0131 32.6262 12.7817 32.4427 13.4481 32.7321C13.9358 32.9465 14.4439 33.1325 14.9597 33.2875C15.6491 33.4993 16.124 34.1374 16.124 34.8685V36.1989C16.124 37.116 16.8567 37.8574 17.7606 37.8574H20.5361C21.44 37.8574 22.1729 37.116 22.1729 36.1989V34.8737C22.1729 34.1348 22.658 33.4967 23.3576 33.2823L23.6537 33.1893C24.3457 32.9594 25.104 33.1997 25.5202 33.8068L26.2735 34.8917C26.7918 35.6435 27.8131 35.8243 28.5536 35.2999L30.8286 33.6879C31.5691 33.1635 31.7478 32.1302 31.2321 31.381L30.4737 30.2882C30.0575 29.6863 30.0932 28.8803 30.5426 28.3016L30.7316 28.0536C31.1682 27.4646 31.924 27.2218 32.6108 27.4724L33.8466 27.9296C34.6969 28.2422 35.6366 27.7979 35.9455 26.9376L36.8928 24.3C37.2043 23.4424 36.7677 22.4917 35.9175 22.1791Z" fill="#47A2DF"/>
</svg>
